<?xml version="1.0" encoding="UTF-8"?>
<svg width="1440px" height="852px" viewBox="0 0 1440 852" version="1.1" xmlns="http://www.w3.org/2000/svg" xmlns:xlink="http://www.w3.org/1999/xlink">
    <!-- Generator: Sketch 51.2 (57519) - http://www.bohemiancoding.com/sketch -->
    <title>Desktop HD</title>
    <desc>Created with Sketch.</desc>
    <defs>
        <linearGradient x1="85.4663009%" y1="-18.4849272%" x2="50%" y2="100%" id="linearGradient-1">
            <stop stop-color="#6C63FF" offset="0%"></stop>
            <stop stop-color="#8A2BE2" offset="100%"></stop>
        </linearGradient>
        <linearGradient x1="84.5485719%" y1="-15.4190012%" x2="50%" y2="100%" id="linearGradient-2">
            <stop stop-color="#FFFFFF" offset="0%"></stop>
            <stop stop-color="#909090" offset="100%"></stop>
        </linearGradient>
        <path d="M915.334639,-61.6878838 C1072.2339,-143.437372 1329.25418,-143.437372 1686.39548,-61.6878838 C1747.94404,748.314918 1765.51473,1072.88388 1739.10756,912.018995 C1699.49681,670.721671 1418.71081,540.537813 1218.82993,572.919329 C1018.94904,605.300845 706.942305,683.349927 596.770616,503.065234 C486.598926,322.780541 679.985748,60.9363486 915.334639,-61.6878838 Z" id="path-3"></path>
        <filter x="-13.2%" y="-15.8%" width="130.4%" height="133.5%" filterUnits="objectBoundingBox" id="filter-4">
            <feOffset dx="24" dy="10" in="SourceAlpha" result="shadowOffsetOuter1"></feOffset>
            <feGaussianBlur stdDeviation="68" in="shadowOffsetOuter1" result="shadowBlurOuter1"></feGaussianBlur>
            <feComposite in="shadowBlurOuter1" in2="SourceAlpha" operator="out" result="shadowBlurOuter1"></feComposite>
            <feColorMatrix values="0 0 0 0 0   0 0 0 0 0   0 0 0 0 0  0 0 0 0.5 0" type="matrix" in="shadowBlurOuter1"></feColorMatrix>
        </filter>
    </defs>
    <g id="Desktop-HD" stroke="none" stroke-width="1" fill="none" fill-rule="evenodd">
        <path d="M668.334639,0.312116191 C825.233899,-81.4373721 1082.25418,-81.4373721 1439.39548,0.312116191 C1500.94404,810.314918 1518.51473,1134.88388 1492.10756,974.018995 C1452.49681,732.721671 1139.72642,613.626056 971.829926,634.919329 C803.933434,656.212602 459.942305,745.349927 349.770616,565.065234 C239.598926,384.780541 432.985748,122.936349 668.334639,0.312116191 Z" id="Rectangle" fill="url(#linearGradient-1)"></path>
        <g id="Rectangle" opacity="0.645926339" transform="translate(1158.000000, 414.500000) rotate(24.000000) translate(-1158.000000, -414.500000) ">
            <use fill="black" fill-opacity="1" filter="url(#filter-4)" xlink:href="#path-3"></use>
            <use fill-opacity="0.13" fill="url(#linearGradient-2)" fill-rule="evenodd" xlink:href="#path-3"></use>
        </g>
        <g id="undraw_happy_announcement_ac67" transform="translate(382.000000, 572.500000) rotate(-5.000000) translate(-382.000000, -572.500000) translate(136.000000, 414.000000)" fill-rule="nonzero">
            <path d="M22.2081617,131.966992 C22.6771394,160.96375 33.4993904,164.102987 46.789513,161.07867 C61.9719382,157.623768 74.4331862,146.794965 80.5748862,132.467506 L84.8105003,122.586594 C90.6742849,108.907452 84.3545862,93.0579557 70.6950546,87.1857447 L70.695003,87.1857447 C64.1354614,84.3658094 56.7259722,84.2708797 50.0965388,86.9218391 C43.4671054,89.5727985 38.1607766,94.752494 35.3448844,101.321452 C21.7152152,106.683209 19.0233571,117.783532 22.2081617,131.966992 Z" id="Shape" fill="#2F2E41"></path>
            <path d="M108.002659,73.7267541 L112.095129,66.8072654 C113.107603,65.0953867 113.280189,63.0146323 112.56357,61.1595721 C111.846951,59.3045118 110.319966,57.8792293 108.418947,57.2909952 C106.409467,56.6691999 104.223101,57.0566528 102.5502,58.3310144 C100.877298,59.605376 99.9243664,61.6093385 99.9922951,63.7101438 L100.232791,71.148037 L81,123.812183 L91.4879793,126 L108.002659,73.7267541 Z" id="Shape" fill="#9F616A"></path>
            <path d="M6.41644314,203.220446 L1.42151154,209.465386 C0.185766236,211.01038 -0.277807618,213.03839 0.163255035,214.969917 C0.604317687,216.901444 1.9014935,218.523991 3.68411777,219.37392 C5.56844691,220.272341 7.76907701,220.200315 9.59115193,219.180586 C11.4132269,218.160856 12.631829,216.319298 12.8621808,214.237389 L13.6777448,206.866398 L40,157.645957 L30.0156954,154 L6.41644314,203.220446 Z" id="Shape" fill="#9F616A"></path>
            <path d="M38,255.076926 L38.7430567,263.933701 L38.9173595,266 L88.3262206,261.284878 C91.7805163,260.898528 94.8416016,258.899638 96.5656795,255.904508 C98.2897574,252.909377 98.4698027,249.277659 97.0503037,246.129086 L81.1158278,212.185645 L75.6116814,200.46154 L51.7603817,195 C32.0922394,209.937285 49.7880428,226.422014 72.0523281,243.097921 C72.9238315,243.753333 73.8044961,244.408727 74.6943219,245.064105 L38,255.076926 Z" id="Shape" fill="#2F2E41"></path>
            <path d="M20.9869743,285.964105 C22.1867401,286.139771 23.3892357,285.662836 24.1611009,284.705181 L40,265.05385 L39.1009706,255.839471 L33.7003739,252.518351 C32.8062296,251.968484 31.7213815,251.849496 30.7339597,252.192989 C29.7465379,252.536482 28.9564819,253.307691 28.5736266,254.301786 L18.2429907,281.125083 C17.8520959,282.140038 17.936146,283.282565 18.4711078,284.225972 C19.0060697,285.169379 19.9330445,285.809797 20.9869743,285.964105 Z" id="Shape" fill="#2F2E41"></path>
            <path d="M35,253.105266 L35.9173595,264 L38.49513,263.754851 L85.3262206,259.297111 C88.7805163,258.911764 91.8416016,256.91806 93.5656795,253.930701 C95.2897574,250.943342 95.4698027,247.321045 94.0503037,244.180642 L80.8679011,214.973685 L80.8679011,212.141056 L75.3637546,200.44737 L51.512455,195 C31.8443126,209.89853 49.540116,226.340488 71.8044013,242.973129 L71.6943219,243.118424 L35,253.105266 Z" id="Shape" fill="#000000" opacity="0.2"></path>
            <path d="M15.9869555,282.964104 C17.1867213,283.139774 18.3892187,282.66284 19.1610836,281.705184 L35,262.053853 L34.1009701,252.839475 L28.7003711,249.518354 C27.8062259,248.968485 26.721376,248.849495 25.7339524,249.192989 C24.7465288,249.536482 23.9564716,250.307693 23.5736163,251.30179 L13.2429961,278.125074 C12.8520974,279.140026 12.9361424,280.282552 13.4710995,281.225961 C14.0060566,282.169369 14.9330275,282.80979 15.9869555,282.964104 Z" id="Shape" fill="#2F2E41"></path>
            <path d="M33,251.076917 L33.9172975,262 L83.3245438,257.283585 C86.7785043,256.897422 89.8395078,254.899161 91.5641605,251.904661 C93.2888132,248.910162 93.470117,245.278832 92.0521944,242.12984 L78.8663482,212.846151 L78.8663482,196.461536 L46.7598983,191 C26.3185292,206.523699 46.2353906,223.720519 69.6930672,241.064118 L33,251.076917 Z" id="Shape" fill="#2F2E41"></path>
            <circle id="Oval" fill="#9F616A" cx="63.5" cy="108.5" r="13.5"></circle>
            <path d="M46,131.400022 L65.3846186,144 L82,140.400002 L72.7692354,131.400022 L72.7692354,117.899997 L58.0000017,117 C57.6899046,122.390962 54.5216135,127.324153 46,131.400022 Z" id="Shape" fill="#9F616A"></path>
            <path d="M42.7839199,195.448718 L78.8078443,200 L87.12106,161.769225 C90.9830956,151.621206 88.7672275,142.655259 81.6169742,134.649073 C81.0539026,131.874621 78.6232939,129.849545 75.7534589,129.763851 L72.3420133,129.910228 C72.7279158,141.982575 63.7022025,139.074907 50.1734433,129 L48.5398469,129.48295 C44.1744302,130.773529 41.4319397,135.026095 42.0998524,139.468949 L43.5894515,149.377511 C44.2211036,153.305765 45.2023181,157.171622 46.5217414,160.93035 C50.2150915,171.807877 48.8952633,183.323387 42.7839199,195.448718 Z" id="Shape" fill="#6C63FF"></path>
            <path d="M27,154.59892 L43.6153826,160 L51,133.894785 L48.4982431,132.785829 C44.1938018,130.877792 39.1096833,132.554886 36.8768883,136.619354 L27,154.59892 Z" id="Shape" fill="#6C63FF"></path>
            <polygon id="Shape" fill="#6C63FF" points="75 129.815028 84.0911892 140 95 122.407252 81.3634729 115"></polygon>
            <path d="M48,104.736807 C56.4833639,107.917004 65.5369232,107.587292 75,104.736807 L75,94 L48,94 L48,104.736807 Z" id="Shape" fill="#2F2E41"></path>
            <polygon id="Shape" fill="#2F2E41" points="476 293.480541 466.545126 297.422938 403.51487 211.480541 357.817947 299 346 296.634665 380.666667 176 420.848203 176"></polygon>
            <path d="M488.97944,312.854597 C487.926162,313.143764 486.801809,312.998006 485.855676,312.449642 L466.017034,300.951412 C464.931691,300.322359 464.199,299.220654 464.03479,297.970823 C463.87058,296.720993 464.293558,295.465422 465.179128,294.573963 L466.952183,292.789124 L476.359111,292 L490.739612,305.897112 C491.804449,306.926174 492.237404,308.452105 491.873108,309.89207 C491.508812,311.332035 490.403534,312.463614 488.97944,312.854597 Z" id="Shape" fill="#2F2E41"></path>
            <path d="M334.020564,316.854599 C335.073842,317.143764 336.198196,316.998004 337.144328,316.449639 L356.982967,304.95141 C358.068309,304.322358 358.801,303.220652 358.96521,301.970822 C359.12942,300.720993 358.706442,299.465422 357.820873,298.573963 L356.047817,296.789123 L346.640891,296 L332.260392,309.89711 C331.195552,310.926171 330.762595,312.452103 331.126892,313.89207 C331.491188,315.332037 332.596468,316.463617 334.020564,316.854599 Z" id="Shape" fill="#2F2E41"></path>
            <path d="M354,50.6743233 L350.056988,53 L341.885868,39.9471574 C340.867449,38.3202958 340.717927,36.3080527 341.485049,34.5529778 C342.25217,32.797903 343.839997,31.51949 345.741503,31.125962 C347.427018,30.7771349 349.183663,31.1607394 350.560413,32.1782835 C351.937163,33.1958276 352.799916,34.7481976 352.927157,36.4368167 L354,50.6743233 Z" id="Shape" fill="#FFB9B9"></path>
            <path d="M463,154.307877 L464.621454,150 L479.124422,155.39565 C480.932021,156.068145 482.303059,157.588073 482.799735,159.47009 C483.296411,161.352108 482.856609,163.360845 481.620767,164.854871 C480.525303,166.179191 478.917786,166.960631 477.210952,166.998554 C475.504117,167.036476 473.864219,166.327187 472.712307,165.0528 L463,154.307877 Z" id="Shape" fill="#FFB9B9"></path>
            <circle id="Oval" fill="#FFB9B9" cx="401" cy="86" r="12"></circle>
            <polygon id="Shape" fill="#FFB9B9" points="412 112 395 112 395 93.6001469 409.571504 92"></polygon>
            <path d="M423.378046,180 L378,180 C379.600084,155.000363 380.867178,130.841008 378,117.114753 L380.638575,104.609325 C381.396668,101.016368 384.821135,98.5997728 388.509411,99.0549942 L394.718228,99.8212901 C398.922958,107.120152 404.004547,107.049748 409.844246,100.607359 L417.322912,100.607359 C419.337083,100.60736 421.266543,101.40756 422.676607,102.827684 C424.086672,104.247807 424.858735,106.168402 424.818858,108.15678 C426.767135,116.964692 427.415207,126.004502 426.742956,134.995573 L423.378046,180 Z" id="Shape" fill="#3F3D56"></path>
            <polygon id="Shape" fill="#3F3D56" points="348 50.1458415 354.27452 47 388 102.84294 378.588477 117"></polygon>
            <path d="M463.58923,156 L469,151.479519 L440.249407,111.577922 C434.507266,103.608667 424.629559,99.647765 414.907014,101.415773 L414,101.580727 L424.871365,120.423627 L439.19005,131.1608 L463.58923,156 Z" id="Shape" fill="#3F3D56"></path>
            <path d="M415.314959,79.4332665 C415.314959,79.4332665 417.553885,74.6192756 411.732665,72.4310746 C411.732665,72.4310746 406.807034,64.5536074 396.955725,69.8052539 C396.955725,69.8052539 390.238931,72.4310746 390.238931,79.4332665 C390.238931,86.4354585 388,87.7483688 388,87.7483688 C388,87.7483688 391.334159,84.4053577 392.229732,81.779537 C393.125306,79.1537163 400.09023,78.5579913 402.77695,81.1838017 C405.463671,83.8096122 412.180475,83.3719822 412.180475,83.3719822 L411.732686,93 C411.732686,93 413.971617,87.3107184 414.867191,87.3107184 C415.762764,87.3107184 416.658322,79.4332665 415.314959,79.4332665 Z" id="Shape" fill="#2F2E41"></path>
            <path d="M111.864815,86.9829401 C109.490865,87.192783 107.394899,85.4425158 107.179371,83.0702909 L102.017068,25.5002702 C101.80712,23.1275467 103.55829,21.0326644 105.931738,20.8172445 L338.13519,0.0170594386 C340.509138,-0.192780489 342.605101,1.55748598 342.820629,3.92970868 L347.982931,61.4997345 C348.192883,63.8724589 346.441711,65.967343 344.068261,66.1827601 L111.864815,86.9829401 Z" id="Shape" fill="#6C63FF"></path>
            <circle id="Oval" fill="#FFFFFF" cx="139" cy="51" r="18"></circle>
            <path d="M179.74784,35.8916922 C178.087334,36.0455585 176.863411,37.531352 177.012258,39.2125777 C177.161105,40.8938035 178.626516,42.1356012 180.287587,41.9881104 L322.242315,29.1090682 C323.319264,29.0129326 324.263531,28.3419543 324.718826,27.349306 C325.174122,26.3566577 325.071138,25.1934466 324.448732,24.298574 C323.826327,23.4037014 322.779246,22.9133905 321.702574,23.0126448 L179.74784,35.8916922 Z" id="Shape" fill="#FFFFFF"></path>
            <path d="M181.758994,53.8910792 C180.681718,53.9866917 179.736945,54.6575691 179.281367,55.6504279 C178.825788,56.6432867 178.928803,57.8068814 179.551519,58.7019075 C180.174235,59.5969336 181.221792,60.0870489 182.298694,59.9872148 L324.242527,47.1087851 C325.319393,47.012654 326.263587,46.3417068 326.718848,45.3491045 C327.174108,44.3565022 327.071132,43.1933449 326.448775,42.2985138 C325.826417,41.4036827 324.779417,40.9133945 323.702827,41.0126442 L181.758994,53.8910792 Z" id="Shape" fill="#FFFFFF"></path>
        </g>
    </g>
</svg>